<svg xmlns="http://www.w3.org/2000/svg" viewBox="0 0 48 60" x="0px" y="0px"><title>Bars</title><g><path d="M38,14.5H10a1,1,0,0,1,0-2H38a1,1,0,0,1,0,2Zm1,6a1,1,0,0,0-1-1H10a1,1,0,0,0,0,2H38A1,1,0,0,0,39,20.5Zm0,7a1,1,0,0,0-1-1H10a1,1,0,0,0,0,2H38A1,1,0,0,0,39,27.5Zm0,7a1,1,0,0,0-1-1H10a1,1,0,0,0,0,2H38A1,1,0,0,0,39,34.5Z"/></g><text x="0" y="63" fill="#000000" font-size="5px" font-weight="bold" font-family="'Helvetica Neue', Helvetica, Arial-Unicode, Arial, Sans-serif">Created by zainal abidin</text><text x="0" y="68" fill="#000000" font-size="5px" font-weight="bold" font-family="'Helvetica Neue', Helvetica, Arial-Unicode, Arial, Sans-serif">from the Noun Project</text></svg>